<?xml version="1.0" encoding="UTF-8" standalone="no"?>
<!DOCTYPE svg PUBLIC "-//W3C//DTD SVG 1.1//EN"
 "http://www.w3.org/Graphics/SVG/1.1/DTD/svg11.dtd">
<!-- Generated by graphviz version 2.26.3 (20100126.1600)
 -->
<!-- Title: G Pages: 1 -->
<svg width="648pt" height="300pt"
 viewBox="0.00 0.00 648.00 299.82" xmlns="http://www.w3.org/2000/svg" xmlns:xlink="http://www.w3.org/1999/xlink">
<g id="graph1" class="graph" transform="scale(0.80597 0.80597) rotate(0) translate(4 368)">
<title>G</title>
<a xlink:href="/rightsdraw2/mco/MyFreeTV.png">
<polygon fill="white" stroke="white" points="-4,5 -4,-368 801,-368 801,5 -4,5"/>
</a>
<!-- x1064 -->
<g id="node1" class="node"><title>x1064</title>
<a xlink:href="/cgi-bin/rightsdraw2/default/mco/doform?instance=MyFreeTV&amp;ind=%23x1064" xlink:title="Permission\nx1064" target="mco_forms">
<ellipse fill="#aaffaa" stroke="black" cx="64" cy="-173" rx="63.1385" ry="31.1127"/>
<text text-anchor="middle" x="64" y="-178.4" font-family="Times Roman,serif" font-size="14.00">Permission</text>
<text text-anchor="middle" x="64" y="-160.4" font-family="Times Roman,serif" font-size="14.00">x1064</text>
</a>
</g>
<!-- x1065 -->
<g id="node2" class="node"><title>x1065</title>
<a xlink:href="/cgi-bin/rightsdraw2/default/mco/doform?instance=MyFreeTV&amp;ind=%23x1065" xlink:title="CommunicationToThePublic\nx1065" target="mco_forms">
<ellipse fill="#ffaaff" stroke="black" cx="406" cy="-333" rx="145.163" ry="31.1127"/>
<text text-anchor="middle" x="406" y="-338.4" font-family="Times Roman,serif" font-size="14.00">CommunicationToThePublic</text>
<text text-anchor="middle" x="406" y="-320.4" font-family="Times Roman,serif" font-size="14.00">x1065</text>
</a>
</g>
<!-- x1064&#45;&gt;x1065 -->
<g id="edge2" class="edge"><title>x1064&#45;&gt;x1065</title>
<path fill="none" stroke="black" d="M94.6346,-200.523C109.52,-213.132 128.04,-227.739 146,-239 193.499,-268.782 207.43,-273.519 260,-293 273.115,-297.86 287.087,-302.428 300.992,-306.616"/>
<polygon fill="black" stroke="black" points="300.015,-309.977 310.597,-309.453 301.998,-303.263 300.015,-309.977"/>
<text text-anchor="middle" x="194" y="-291.4" font-family="Times Roman,serif" font-size="14.00">permitsAction</text>
</g>
<!-- x1066 -->
<g id="node3" class="node"><title>x1066</title>
<a xlink:href="/cgi-bin/rightsdraw2/default/mco/doform?instance=MyFreeTV&amp;ind=%23x1066" xlink:title="FreeOfCharge\nx1066" target="mco_forms">
<ellipse fill="#ffffaa" stroke="black" cx="406" cy="-253" rx="79.196" ry="31.1127"/>
<text text-anchor="middle" x="406" y="-258.4" font-family="Times Roman,serif" font-size="14.00">FreeOfCharge</text>
<text text-anchor="middle" x="406" y="-240.4" font-family="Times Roman,serif" font-size="14.00">x1066</text>
</a>
</g>
<!-- x1064&#45;&gt;x1066 -->
<g id="edge4" class="edge"><title>x1064&#45;&gt;x1066</title>
<path fill="none" stroke="black" d="M119.495,-188.232C128.344,-190.562 137.411,-192.891 146,-195 206.213,-209.786 274.664,-224.992 326.212,-236.123"/>
<polygon fill="black" stroke="black" points="325.776,-239.609 336.289,-238.293 327.25,-232.766 325.776,-239.609"/>
<text text-anchor="middle" x="194" y="-222.4" font-family="Times Roman,serif" font-size="14.00">hasRequired</text>
</g>
<!-- x1067 -->
<g id="node4" class="node"><title>x1067</title>
<a xlink:href="/cgi-bin/rightsdraw2/default/mco/doform?instance=MyFreeTV&amp;ind=%23x1067" xlink:title="Linear\nx1067" target="mco_forms">
<ellipse fill="#ffffaa" stroke="black" cx="406" cy="-173" rx="43.1335" ry="31.1127"/>
<text text-anchor="middle" x="406" y="-178.4" font-family="Times Roman,serif" font-size="14.00">Linear</text>
<text text-anchor="middle" x="406" y="-160.4" font-family="Times Roman,serif" font-size="14.00">x1067</text>
</a>
</g>
<!-- x1064&#45;&gt;x1067 -->
<g id="edge6" class="edge"><title>x1064&#45;&gt;x1067</title>
<path fill="none" stroke="black" d="M127.526,-173C192.352,-173 291.832,-173 352.689,-173"/>
<polygon fill="black" stroke="black" points="352.849,-176.5 362.849,-173 352.849,-169.5 352.849,-176.5"/>
<text text-anchor="middle" x="194" y="-178.4" font-family="Times Roman,serif" font-size="14.00">hasRequired</text>
</g>
<!-- x1068 -->
<g id="node6" class="node"><title>x1068</title>
<a xlink:href="/cgi-bin/rightsdraw2/default/mco/doform?instance=MyFreeTV&amp;ind=%23x1068" xlink:title="BroadcastTechnology\nx1068" target="mco_forms">
<ellipse fill="#ffffaa" stroke="black" cx="406" cy="-93" rx="113.844" ry="31.1127"/>
<text text-anchor="middle" x="406" y="-98.4" font-family="Times Roman,serif" font-size="14.00">BroadcastTechnology</text>
<text text-anchor="middle" x="406" y="-80.4" font-family="Times Roman,serif" font-size="14.00">x1068</text>
</a>
</g>
<!-- x1064&#45;&gt;x1068 -->
<g id="edge10" class="edge"><title>x1064&#45;&gt;x1068</title>
<path fill="none" stroke="black" d="M119.495,-157.768C128.344,-155.438 137.411,-153.109 146,-151 198.629,-138.076 257.552,-124.832 305.98,-114.268"/>
<polygon fill="black" stroke="black" points="306.807,-117.67 315.835,-112.124 305.319,-110.83 306.807,-117.67"/>
<text text-anchor="middle" x="194" y="-156.4" font-family="Times Roman,serif" font-size="14.00">hasRequired</text>
</g>
<!-- x1064_isExclusive -->
<g id="node12" class="node"><title>x1064_isExclusive</title>
<polygon fill="lightgrey" stroke="black" points="457,-44 355,-44 355,-1.06581e-14 457,-0 457,-44"/>
<text text-anchor="middle" x="406" y="-27.4" font-family="Times Roman,serif" font-size="14.00">isExclusive=</text>
<text text-anchor="middle" x="406" y="-9.4" font-family="Times Roman,serif" font-size="14.00">true</text>
</g>
<!-- x1064&#45;&gt;x1064_isExclusive -->
<g id="edge12" class="edge"><title>x1064&#45;&gt;x1064_isExclusive</title>
<path fill="none" stroke="black" d="M98.5411,-146.782C136.26,-119.403 199.402,-77.1543 260,-53 290.209,-40.9589 325.887,-33.2735 354.412,-28.567"/>
</g>
<!-- RAI.IT -->
<g id="node5" class="node"><title>RAI.IT</title>
<a xlink:href="/cgi-bin/rightsdraw2/default/mco/doform?instance=MyFreeTV&amp;ind=%23RAI.IT" xlink:title="Organization\nRAI.IT" target="mco_forms">
<ellipse fill="orange" stroke="black" cx="720" cy="-333" rx="75.1594" ry="31.1127"/>
<text text-anchor="middle" x="720" y="-338.4" font-family="Times Roman,serif" font-size="14.00">Organization</text>
<text text-anchor="middle" x="720" y="-320.4" font-family="Times Roman,serif" font-size="14.00">RAI.IT</text>
</a>
</g>
<!-- x1065&#45;&gt;RAI.IT -->
<g id="edge8" class="edge"><title>x1065&#45;&gt;RAI.IT</title>
<path fill="none" stroke="black" d="M551.51,-333C579.835,-333 608.661,-333 634.274,-333"/>
<polygon fill="black" stroke="black" points="634.296,-336.5 644.296,-333 634.296,-329.5 634.296,-336.5"/>
<text text-anchor="middle" x="598" y="-338.4" font-family="Times Roman,serif" font-size="14.00">actedBy</text>
</g>
</g>
</svg>
